<?xml version="1.0" standalone="no"?>
<!DOCTYPE svg PUBLIC "-//W3C//DTD SVG 20010904//EN"
 "http://www.w3.org/TR/2001/REC-SVG-20010904/DTD/svg10.dtd">
<svg version="1.0" xmlns="http://www.w3.org/2000/svg"
 width="837.000000pt" height="100.000000pt" viewBox="0 0 837.000000 100.000000"
 preserveAspectRatio="xMidYMid meet">

<g transform="translate(0.000000,100.000000) scale(0.100000,-0.100000)"
fill="#000000" stroke="none">
<path d="M3332 964 c-11 -22 -99 -217 -197 -434 -98 -217 -188 -410 -202 -428
-13 -17 -38 -39 -54 -48 -17 -8 -29 -18 -26 -20 2 -3 64 -6 136 -7 133 -3 159
5 92 28 -73 24 -75 63 -10 210 59 133 43 125 241 125 l168 0 19 -31 c11 -18
36 -81 56 -142 40 -121 39 -151 -10 -163 -14 -3 -25 -13 -25 -21 0 -10 6 -13
16 -9 9 3 81 6 160 6 137 0 183 10 112 25 -49 10 -75 31 -99 76 -11 23 -92
223 -179 446 -87 223 -163 410 -168 415 -7 7 -17 -2 -30 -28z m65 -332 c35
-89 61 -167 58 -172 -4 -6 -63 -10 -141 -10 -113 0 -136 3 -141 16 -5 14 20
75 112 277 15 32 32 56 37 55 6 -2 40 -77 75 -166z"/>
<path d="M7841 939 c-16 -35 -107 -235 -200 -443 -164 -366 -198 -427 -243
-442 -46 -14 -4 -24 115 -27 130 -4 156 5 88 28 -46 15 -64 42 -56 84 10 52
84 214 107 234 17 15 42 17 182 17 88 0 167 -4 173 -8 19 -12 94 -222 96 -267
2 -36 -1 -41 -30 -55 -28 -13 -41 -33 -20 -31 4 1 75 1 157 1 143 0 190 10
118 25 -82 17 -74 3 -283 540 -81 209 -153 386 -161 394 -11 13 -18 5 -43 -50z
m72 -293 c31 -80 58 -157 60 -169 2 -22 0 -22 -136 -25 -117 -2 -138 0 -143
13 -8 20 135 337 150 332 6 -2 37 -70 69 -151z"/>
<path d="M6818 974 c-3 -3 -79 -7 -169 -9 -101 -3 -165 -8 -167 -15 -2 -5 5
-10 17 -10 11 0 32 -5 46 -12 54 -24 55 -35 55 -443 0 -250 -4 -383 -11 -397
-6 -11 -26 -26 -45 -34 -19 -8 -34 -18 -34 -22 0 -4 114 -7 253 -6 282 1 316
6 422 69 117 69 194 190 216 338 34 233 -82 433 -295 507 -68 23 -275 48 -288
34z m117 -44 c175 -26 296 -138 351 -325 23 -78 23 -221 1 -295 -58 -194 -249
-288 -477 -234 -108 25 -100 -10 -100 434 0 436 -5 409 79 421 68 9 70 9 146
-1z"/>
<path d="M2174 958 c-6 -9 4 -14 42 -22 17 -4 42 -18 55 -32 l24 -26 0 -377
c0 -416 0 -415 -61 -444 -19 -9 -34 -20 -34 -24 0 -5 120 -8 268 -8 257 1 269
1 313 23 49 24 93 76 104 124 9 37 1 35 -50 -10 -61 -54 -134 -75 -281 -80
-104 -4 -123 -2 -137 13 -16 16 -17 49 -15 405 3 361 4 389 22 408 10 12 31
24 47 27 16 4 29 12 29 18 0 13 -318 18 -326 5z"/>
<path d="M3820 960 c0 -5 17 -14 38 -19 47 -13 86 -52 109 -111 16 -40 18 -82
18 -370 0 -364 0 -367 -70 -396 -66 -27 -50 -34 77 -34 68 0 133 -3 146 -6 16
-5 22 -2 22 9 0 9 -17 19 -46 26 -73 18 -75 30 -72 364 2 221 6 282 16 282 7
0 146 -153 310 -340 164 -187 304 -340 312 -340 13 0 16 62 20 436 5 468 4
460 57 480 48 18 18 24 -122 24 -94 1 -144 -3 -142 -9 2 -6 20 -14 41 -18 53
-11 73 -24 93 -61 15 -28 18 -71 21 -345 2 -171 0 -312 -5 -312 -4 0 -156 169
-338 375 l-330 375 -77 0 c-43 0 -78 -4 -78 -10z"/>
<path d="M6023 957 c2 -6 19 -15 38 -19 19 -5 44 -20 57 -34 l22 -25 0 -382
c0 -426 0 -426 -63 -441 -21 -5 -36 -14 -34 -19 4 -12 337 -13 338 -1 0 5 -20
15 -46 22 -34 10 -52 22 -66 45 -18 30 -19 54 -19 395 0 404 1 411 66 438 19
8 34 18 34 23 0 5 -74 9 -165 9 -116 0 -165 -4 -162 -11z"/>
<path d="M1286 933 c-3 -16 -8 -61 -12 -102 -7 -81 6 -91 28 -20 21 72 41 80
197 77 l136 -3 3 -370 c2 -238 -1 -383 -8 -406 -10 -35 -19 -42 -82 -63 -47
-15 -4 -21 142 -20 154 2 195 7 154 19 -51 16 -84 40 -93 68 -12 32 -16 733
-5 761 5 14 28 16 154 16 161 0 171 -3 185 -62 4 -16 13 -28 21 -28 10 0 12
15 8 68 -3 37 -7 73 -10 80 -3 9 -93 12 -408 12 l-404 0 -6 -27z"/>
<path d="M4852 948 c-18 -18 -15 -71 9 -133 20 -53 62 -115 79 -115 4 0 11 17
15 38 3 20 17 61 30 90 28 60 47 72 159 92 l70 13 27 -33 c23 -26 29 -46 35
-109 7 -79 1 -282 -17 -536 -12 -179 -15 -195 -34 -195 -8 0 -15 -7 -15 -15 0
-24 51 -19 57 5 3 11 10 20 15 20 7 0 8 16 5 40 -3 21 -1 40 4 42 15 5 46 428
35 468 -7 25 -7 35 2 38 7 2 12 10 12 18 0 8 7 17 15 20 9 4 15 19 15 40 0 19
5 34 10 34 6 0 10 -16 10 -35 0 -22 6 -38 15 -41 8 -4 15 -12 15 -19 0 -7 5
-15 12 -17 9 -3 9 -12 0 -38 -14 -39 3 -463 19 -468 5 -2 9 -21 9 -43 0 -21 4
-39 9 -39 5 0 11 -9 14 -20 3 -14 14 -20 31 -20 31 0 33 13 5 31 -19 13 -22
31 -34 204 -20 265 -20 567 0 609 24 50 46 58 118 46 126 -22 157 -50 188
-172 10 -42 13 -46 30 -38 48 26 103 184 80 228 l-12 22 -512 0 c-386 0 -516
-3 -525 -12z"/>
<path d="M464 702 l-141 -247 -44 -6 c-27 -4 -33 -7 -17 -7 15 -1 30 -7 33
-13 7 -11 -117 -224 -181 -313 -20 -27 -49 -53 -65 -59 -16 -6 -29 -15 -29
-19 0 -4 86 -8 190 -8 113 0 190 4 190 9 0 6 -12 16 -27 23 -45 22 -49 40 -25
99 30 71 111 219 121 219 4 0 26 -14 49 -31 38 -28 41 -33 29 -48 -7 -9 -18
-28 -24 -42 l-11 -26 96 17 c77 14 99 22 115 41 17 21 18 24 3 27 -24 5 20 38
75 57 34 12 44 13 50 3 19 -30 79 -212 79 -238 0 -31 -27 -58 -80 -80 -16 -7
-30 -16 -30 -21 0 -5 86 -9 191 -9 119 0 188 4 184 10 -3 5 -22 12 -43 16 -54
10 -87 29 -122 71 -34 41 -133 260 -121 267 4 3 27 0 50 -5 24 -5 45 -8 48 -6
7 8 -48 39 -89 51 l-41 11 -103 239 c-57 131 -109 245 -115 252 -6 8 -21 14
-33 14 -17 -1 -48 -48 -162 -248z m260 6 c14 -35 43 -108 65 -163 l39 -100
-62 -16 c-33 -9 -84 -28 -113 -42 l-51 -26 -16 24 c-9 14 -31 32 -49 41 -17 9
-34 18 -35 19 -5 5 182 325 189 325 4 0 18 -28 33 -62z"/>
<path d="M5360 670 c0 -5 9 -10 20 -10 11 0 20 5 20 10 0 6 -9 10 -20 10 -11
0 -20 -4 -20 -10z"/>
<path d="M5346 543 c-3 -25 -4 -49 -1 -51 10 -11 65 52 65 75 0 19 -5 23 -29
23 -26 0 -29 -3 -35 -47z"/>
<path d="M5390 443 c-14 -11 -33 -22 -42 -26 -15 -5 -18 -18 -18 -67 0 -33 3
-60 8 -60 14 0 73 40 78 54 3 7 4 37 2 66 l-3 52 -25 -19z"/>
<path d="M5368 222 c-37 -19 -48 -30 -48 -48 0 -22 4 -24 55 -24 l55 0 0 44
c0 25 -3 46 -7 48 -5 2 -29 -7 -55 -20z"/>
<path d="M5310 100 c0 -20 5 -30 15 -30 10 0 15 10 15 30 0 20 -5 30 -15 30
-10 0 -15 -10 -15 -30z"/>
<path d="M5350 100 c0 -23 4 -30 20 -30 16 0 20 7 20 30 0 23 -4 30 -20 30
-16 0 -20 -7 -20 -30z"/>
<path d="M5400 100 c0 -20 5 -30 15 -30 10 0 15 10 15 30 0 20 -5 30 -15 30
-10 0 -15 -10 -15 -30z"/>
</g>
</svg>
